<?xml version="1.0" encoding="UTF-8" standalone="no"?><!DOCTYPE svg PUBLIC "-//W3C//DTD SVG 1.1//EN" "http://www.w3.org/Graphics/SVG/1.1/DTD/svg11.dtd"><svg width="100%" height="100%" viewBox="0 0 3508 2481" version="1.1" xmlns="http://www.w3.org/2000/svg" xmlns:xlink="http://www.w3.org/1999/xlink" xml:space="preserve" xmlns:serif="http://www.serif.com/" style="fill-rule:evenodd;clip-rule:evenodd;stroke-linejoin:round;stroke-miterlimit:2;"><rect x="719.334" y="483.95" width="2069.206" height="652.384" style="fill:#0077c0;"/><path d="M1137.605,690.633l-208.347,0l0,53.125l72.782,0l0,152.003l62.783,0l0,-152.003l72.782,0l0,-53.125Z" style="fill:#fff;fill-rule:nonzero;"/><path d="M1249.765,810.362l-47.512,0l23.761,-59.876l23.751,59.876Zm-58.99,-119.731l-90.437,205.128l67.943,0l15.925,-40.269l83.606,0l15.935,40.269l67.933,0l-90.437,-205.128l-70.468,0Z" style="fill:#fff;fill-rule:nonzero;"/><path d="M1503.864,805.022l-48.729,-114.389l-86.172,0l0,205.128l61.123,0l0.483,-120.485l54.323,120.485l37.935,0l54.785,-120.465l0,120.465l61.153,0l0,-205.128l-86.182,0l-48.719,114.389Z" style="fill:#fff;fill-rule:nonzero;"/><path d="M1659.165,743.76l72.782,0l0,152.003l62.793,0l0,-152.003l72.782,0l0,-53.125l-208.357,0l0,53.125Z" style="fill:#fff;fill-rule:nonzero;"/><path d="M2517.467,818.351l-96.402,-127.708l-68.929,0l0,205.118l61.153,0l0,-128.091l100.316,128.091l65.006,0l0,-205.118l-61.143,0l0,127.708Z" style="fill:#fff;fill-rule:nonzero;"/><path d="M2028.301,765.433c0,20.26 0,20.26 -15.552,20.26l-63.829,0l0,-41.265l63.829,0c15.552,0 15.552,0 15.552,21.005m59.785,0.573l0,-2.807c0,-39.454 -4.396,-72.108 -58.417,-72.108l-142.074,0l0,205.118l62.048,0l0.614,-63.899l39.555,0l36.627,63.899l75.73,0l-43.81,-65.801c29.757,-7.152 29.747,-27.141 29.727,-64.402" style="fill:#fff;fill-rule:nonzero;"/><path d="M2264.29,757l0,72.752c0,7.032 -5.694,12.756 -12.695,12.756l-68.104,0c-7.002,0 -12.695,-5.724 -12.695,-12.756l0,-72.752c0,-7.032 5.694,-12.756 12.695,-12.756l68.104,0c7.002,0 12.695,5.724 12.695,12.756m9.335,-66.193l-112.548,0c-29.435,0 -51.637,22.272 -51.637,51.808l0,96.02c0,31.598 22.202,57.3 49.484,57.3l117.236,0c27.282,0 49.494,-25.703 49.494,-57.3l0,-96.02c0,-33.65 -26.809,-51.808 -52.029,-51.808" style="fill:#fff;fill-rule:nonzero;"/></svg>